<svg width="64" height="64" viewBox="0 0 64 64" fill="none" xmlns="http://www.w3.org/2000/svg">
<mask id="path-1-inside-1" fill="white">
<path fill-rule="evenodd" clip-rule="evenodd" d="M39.3034 52.0284C39.3034 50.3417 40.2714 48.8347 41.608 47.8059C45.432 44.8629 47.8961 40.2401 47.8961 35.0417C47.8961 26.1514 40.6891 18.9445 31.7989 18.9445C22.9086 18.9445 15.7017 26.1514 15.7017 35.0417C15.7017 40.2399 18.1656 44.8626 21.9893 47.8056C23.3259 48.8344 24.2939 50.3414 24.2939 52.0282V52.0282C24.2939 54.5405 26.3304 56.577 28.8427 56.577H34.7548C37.2669 56.577 39.3034 54.5406 39.3034 52.0284V52.0284Z"/>
</mask>
<path d="M41.608 47.8059L43.4378 50.1834L41.608 47.8059ZM44.8961 35.0417C44.8961 39.2695 42.8961 43.029 39.7783 45.4285L43.4378 50.1834C47.9678 46.6969 50.8961 41.2106 50.8961 35.0417H44.8961ZM31.7989 21.9445C39.0323 21.9445 44.8961 27.8083 44.8961 35.0417H50.8961C50.8961 24.4946 42.346 15.9445 31.7989 15.9445V21.9445ZM18.7017 35.0417C18.7017 27.8083 24.5655 21.9445 31.7989 21.9445V15.9445C21.2518 15.9445 12.7017 24.4946 12.7017 35.0417H18.7017ZM23.8191 45.4283C20.7015 43.0287 18.7017 39.2694 18.7017 35.0417H12.7017C12.7017 41.2104 15.6297 46.6965 20.1594 50.1829L23.8191 45.4283ZM34.7548 53.577H28.8427V59.577H34.7548V53.577ZM21.2939 52.0282C21.2939 56.1973 24.6736 59.577 28.8427 59.577V53.577C27.9873 53.577 27.2939 52.8836 27.2939 52.0282H21.2939ZM20.1594 50.1829C20.9891 50.8215 21.2939 51.5296 21.2939 52.0282H27.2939C27.2939 49.1533 25.6628 46.8473 23.8191 45.4283L20.1594 50.1829ZM34.7548 59.577C38.9238 59.577 42.3034 56.1974 42.3034 52.0284H36.3034C36.3034 52.8837 35.6101 53.577 34.7548 53.577V59.577ZM39.7783 45.4285C37.9346 46.8475 36.3034 49.1535 36.3034 52.0284H42.3034C42.3034 51.5299 42.6081 50.8219 43.4378 50.1834L39.7783 45.4285Z" fill="#757575" mask="url(#path-1-inside-1)"/>
<rect x="26.7148" y="57.9166" width="9.31944" height="1.69444" rx="0.847222" fill="#757575"/>
<rect x="28.4097" y="61.3055" width="5.93056" height="1.69444" rx="0.847222" fill="#757575"/>
<path d="M32.6455 24.0278C34.9048 24.3102 39.9316 26.2306 41.965 31.6528" stroke="#757575" stroke-width="3" stroke-linecap="round"/>
<circle cx="42.8126" cy="34.1945" r="0.5" fill="#757575" stroke="#757575" stroke-width="0.694444"/>
<path d="M10.6179 43.0903H2.56934" stroke="#757575" stroke-width="3" stroke-linecap="round"/>
<path d="M53.8264 43.0903H61.875" stroke="#757575" stroke-width="3" stroke-linecap="round"/>
<path d="M9.96298 22.9688L2.99268 18.9445" stroke="#757575" stroke-width="3" stroke-linecap="round"/>
<path d="M54.4809 22.9688L61.4512 18.9445" stroke="#757575" stroke-width="3" stroke-linecap="round"/>
<path d="M31.7983 10.0486L31.7983 2" stroke="#757575" stroke-width="3" stroke-linecap="round"/>
</svg>
