<svg width="64" height="64" viewBox="0 0 64 64" fill="none" xmlns="http://www.w3.org/2000/svg">
<g clip-path="url(#clip0)">
<circle cx="31.7772" cy="20.4164" r="17.9164" stroke="#757575" stroke-width="3"/>
<path d="M32.5 38.6967V63.1737" stroke="#757575" stroke-width="3"/>
<path d="M61.4936 42.1763C46.1007 42.5412 39.8146 53.4366 38.1513 60.6579C37.8833 61.8216 38.8205 62.8705 40.0108 62.7763C53.2953 61.7247 60.509 51.4459 63.2058 44.571C63.6736 43.3784 62.7743 42.1459 61.4936 42.1763Z" stroke="#757575" stroke-width="3"/>
<path d="M3.50639 42.1763C18.8993 42.5412 25.1854 53.4366 26.8487 60.6579C27.1167 61.8216 26.1795 62.8705 24.9892 62.7763C11.7047 61.7247 4.49098 51.4459 1.7942 44.571C1.32639 43.3784 2.22569 42.1459 3.50639 42.1763Z" stroke="#757575" stroke-width="3"/>
<path d="M32.3965 10.5017V30.3312" stroke="#757575" stroke-width="3" stroke-linecap="round" stroke-linejoin="round"/>
<path d="M36.8723 14.2196H30.1592C29.3283 14.2196 28.5315 14.546 27.9439 15.1271C27.3564 15.7081 27.0264 16.4962 27.0264 17.318C27.0264 18.1397 27.3564 18.9278 27.9439 19.5088C28.5315 20.0899 29.3283 20.4163 30.1592 20.4163H34.6346C35.4654 20.4163 36.2623 20.7428 36.8498 21.3238C37.4373 21.9049 37.7674 22.6929 37.7674 23.5147C37.7674 24.3364 37.4373 25.1245 36.8498 25.7056C36.2623 26.2866 35.4654 26.613 34.6346 26.613H27.0264" stroke="#757575" stroke-width="3" stroke-linecap="round" stroke-linejoin="round"/>
</g>
<defs>
<clipPath id="clip0">
<rect width="64" height="64" fill="white"/>
</clipPath>
</defs>
</svg>
